<svg xmlns="http://www.w3.org/2000/svg" viewBox="0 0 100 100">
  <defs>
    <linearGradient id="leafGradient" x1="0%" y1="0%" x2="100%" y2="100%">
      <stop offset="0%" style="stop-color:#10b981"/>
      <stop offset="100%" style="stop-color:#059669"/>
    </linearGradient>
  </defs>
  <circle cx="50" cy="50" r="45" fill="url(#leafGradient)"/>
  <g fill="none" stroke="white" stroke-width="4" stroke-linecap="round" stroke-linejoin="round">
    <path d="M35 75h30"/>
    <path d="M45 75c22-10 3.2-25.6 12-40"/>
    <path d="M42.4 37.6c4.4 3.2 7.2 8.8 9.2 14.8-8 1.6-14 1.6-19.2-1.2-4.8-2.4-9.2-7.6-12-16.8 11.2-2 17.6 0 22 3.2z"/>
    <path d="M56.4 24c-1.6 5.6-2 10.8-4.4 16 7.6-.4 13.2-2.4 17.2-5.6 4-4 6.4-9.2 6.8-18.4-10.8.4-16 4-19.6 8z"/>
  </g>
</svg>
